<svg xmlns="http://www.w3.org/2000/svg" width="13.737" height="13.737" viewBox="0 0 13.737 13.737">
  <defs>
    <style>
      .cls-1 {
        fill: #eaba6f;
      }
    </style>
  </defs>
  <g id="bianhao" transform="translate(-64 -64)">
    <path id="路径_7" data-name="路径 7" class="cls-1" d="M532.732,447.2a.994.994,0,1,0,.932.989A.909.909,0,0,0,532.732,447.2Z" transform="translate(-460.628 -377.325)"/>
    <path id="路径_8" data-name="路径 8" class="cls-1" d="M70.869,64a6.869,6.869,0,1,0,6.869,6.869A6.869,6.869,0,0,0,70.869,64Zm-1.107,8.687c0,.041-.015.057-.074.011L67.465,70.87v1.765h-.889V69.047c0-.031.015-.057.074-.011l2.223,1.832V69.095h.891v3.592Zm2.343-.006A1.816,1.816,0,1,1,74,70.864,1.836,1.836,0,0,1,72.1,72.681Zm2.536.006a.511.511,0,1,1,.521-.511A.511.511,0,0,1,74.64,72.687Z" transform="translate(0 0)"/>
  </g>
</svg>
