<svg xmlns="http://www.w3.org/2000/svg" width="18.188" height="18.185" viewBox="0 0 18.188 18.185">
  <defs>
    <style>
      .cls-1 {
        fill: #fffaff;
      }
    </style>
  </defs>
  <path id="IOTtubiao_huabanfuben-2" class="cls-1" d="M4.321,11.541c.471,0,.807-.023,1.287-.063l.313-.025,0-.315A5.862,5.862,0,0,1,7.824,7.254a6.055,6.055,0,0,1,3.994-2h.347l-.005-.344c-.009-.448,0-.589.007-.838l.025-.757-.349,0A8.094,8.094,0,0,0,6.43,5.978a7.659,7.659,0,0,0-2.447,5.231l.005.333Zm9.672-6.654-.007.344h.351a6.044,6.044,0,0,1,3.985,1.992,5.824,5.824,0,0,1,1.9,3.858l0,.317.315.023c.478.038.814.059,1.282.061l.333,0,.005-.333a7.6,7.6,0,0,0-2.429-5.193A8.077,8.077,0,0,0,14.309,3.3l-.349,0,.025.768C13.994,4.306,14,4.449,13.993,4.888Zm-1.844,15,.007-.344h-.351a6.1,6.1,0,0,1-4.024-2.008A5.8,5.8,0,0,1,5.9,13.706l0-.315-.315-.025c-.48-.038-.818-.061-1.287-.061H3.97l-.007.331a7.555,7.555,0,0,0,2.417,5.157,8.152,8.152,0,0,0,5.453,2.671l.349,0-.025-.759C12.147,20.465,12.142,20.323,12.149,19.883Zm9.663-6.521c-.469,0-.806.023-1.283.061l-.315.025,0,.315a5.743,5.743,0,0,1-1.869,3.8,6.1,6.1,0,0,1-4.022,2H14.32l-.345,0,.007.344c.007.439,0,.578-.007.82l-.025.759.349,0a8.138,8.138,0,0,0,5.449-2.669,7.5,7.5,0,0,0,2.4-5.12l-.005-.333h-.333Zm-5.4-1.393H13.747l1.6-4.8L10.01,12.5h2.669l-2.136,4.8Z" transform="translate(-3.962 -3.3)"/>
</svg>
