<?xml version="1.0" encoding="utf-8"?>
<!-- Generator: Adobe Illustrator 25.3.1, SVG Export Plug-In . SVG Version: 6.00 Build 0)  -->
<svg version="1.1" id="图层_1" xmlns="http://www.w3.org/2000/svg" xmlns:xlink="http://www.w3.org/1999/xlink" x="0px" y="0px"
	 viewBox="0 0 200 200" style="enable-background:new 0 0 200 200;" xml:space="preserve">
<style type="text/css">
	.st0{fill:#000;}
</style>
<path class="st0" d="M168.5,159.6L141.9,133l0,0c4.6-5.4,8.3-11.4,11-18c3.7-8.7,5.5-17.9,5.5-27.4c0-9.5-1.9-18.7-5.5-27.4
	c-3.6-8.4-8.6-15.9-15.1-22.4c-6.5-6.5-14-11.6-22.4-15.1c-8.7-3.7-17.9-5.5-27.4-5.5c-9.5,0-18.7,1.9-27.4,5.5
	c-8.4,3.6-15.9,8.6-22.4,15.1c-6.5,6.5-11.6,14-15.1,22.4c-3.7,8.7-5.5,17.9-5.5,27.4s1.9,18.7,5.5,27.4c3.6,8.4,8.6,15.9,15.1,22.4
	c6.5,6.5,14,11.6,22.4,15.1c8.7,3.7,17.9,5.5,27.4,5.5s18.7-1.9,27.4-5.5c6.4-2.7,12.3-6.3,17.6-10.7c0,0,0,0,0,0l26.6,26.6
	c1.2,1.2,2.8,1.8,4.4,1.8c1.6,0,3.2-0.6,4.4-1.8C170.9,166,170.9,162,168.5,159.6L168.5,159.6z M88,146c-15.6,0-30.3-6.1-41.3-17.1
	c-11-11-17.1-25.7-17.1-41.3s6.1-30.3,17.1-41.3c11-11,25.7-17.1,41.3-17.1s30.3,6.1,41.3,17.1c11,11,17.1,25.7,17.1,41.3
	s-6.1,30.3-17.1,41.3C118.2,139.9,103.6,146,88,146z"/>
</svg>
