<?xml version="1.0" encoding="UTF-8"?>
<svg width="66px" height="66px" viewBox="0 0 66 66" version="1.1" xmlns="http://www.w3.org/2000/svg" xmlns:xlink="http://www.w3.org/1999/xlink">
    <title>变电站备份 3</title>
    <g id="页面-1" stroke="none" stroke-width="1" fill="none" fill-rule="evenodd">
        <g id="多电源用户预警" transform="translate(-315.000000, -679.000000)" fill-rule="nonzero">
            <g id="变电站备份-3" transform="translate(315.725000, 679.725000)">
                <path d="M32,0 C49.673112,0 64,14.326888 64,32 C64,49.673112 49.673112,64 32,64 C14.326888,64 0,49.673112 0,32 C0.02319569,14.3365049 14.3365049,0.02319569 32,0" id="形状" stroke="#DC4747" fill="#FFFFFF"></path>
                <path d="M6.85714286,32 C6.85714286,45.8860166 18.1139834,57.1428571 32,57.1428571 C45.8860166,57.1428571 57.1428571,45.8860166 57.1428571,32 C57.1428571,18.1139834 45.8860166,6.85714286 32,6.85714286 C18.1139834,6.85714286 6.85714286,18.1139834 6.85714286,32 L6.85714286,32 Z" id="路径" stroke="#DC4747" fill="#FFFFFF"></path>
                <g id="biandianzhan" transform="translate(17.653333, 19.786667)" fill="#DC4747">
                    <path d="M12.1142857,6.4 L0.685714292,6.4 C0.307004746,6.4 0,6.65470023 0,6.96888889 L0,22.8977778 C0,23.2119664 0.307004746,23.4666667 0.685714292,23.4666667 L12.1142857,23.4666667 C12.4929953,23.4666667 12.8,23.2119664 12.8,22.8977778 L12.8,6.96888889 C12.8,6.65470023 12.4929953,6.4 12.1142857,6.4 L12.1142857,6.4 Z M10.9714286,21.3807407 C10.9714286,21.6949294 10.6644238,21.9496296 10.2857143,21.9496296 L2.51428571,21.9496296 C2.13557617,21.9496296 1.82857142,21.6949294 1.82857142,21.3807407 L1.82857142,8.48592593 C1.82857142,8.17173726 2.13557617,7.91703703 2.51428571,7.91703703 L10.2857143,7.91703703 C10.6644238,7.91703703 10.9714286,8.17173726 10.9714286,8.48592593 L10.9714286,21.3807407 Z" id="形状"></path>
                    <path d="M10.2890635,12.8 L5.0016789,21.3333333 L2.60906351,21.3333333 L6.52306351,14.9323333 L2.7120323,14.9333333 L3.95599937,12.8 L3.96006351,12.7993333 L6.44926512,8.53333333 L9.11593179,8.53333333 L6.44806351,12.7993333 L10.2890635,12.8 Z" id="形状结合"></path>
                    <path d="M25.2223968,12.8 L19.9350122,21.3333333 L17.5423968,21.3333333 L21.4563968,14.9323333 L17.6453656,14.9333333 L18.8893327,12.8 L18.8933968,12.7993333 L21.3825985,8.53333333 L24.0492651,8.53333333 L21.3813968,12.7993333 L25.2223968,12.8 Z" id="形状结合备份"></path>
                    <polygon id="路径" points="3.41333331 1.98951966e-14 3.41333331 4.48000001 4.69333333 4.48000001 4.69333333 6.4 8.53333333 6.4 8.53333333 4.48000001 9.81333331 4.48000001 9.81333331 1.98951966e-14"></polygon>
                    <path d="M27.047619,6.4 L15.6190476,6.4 C15.2403381,6.4 14.9333333,6.65470023 14.9333333,6.96888889 L14.9333333,22.8977778 C14.9333333,23.2119664 15.2403381,23.4666667 15.6190476,23.4666667 L27.047619,23.4666667 C27.4263286,23.4666667 27.7333333,23.2119664 27.7333333,22.8977778 L27.7333333,6.96888889 C27.7333333,6.65470023 27.4263286,6.4 27.047619,6.4 L27.047619,6.4 Z M25.9047619,21.3807407 C25.9047619,21.6949294 25.5977572,21.9496296 25.2190476,21.9496296 L17.447619,21.9496296 C17.0689095,21.9496296 16.7619048,21.6949294 16.7619048,21.3807407 L16.7619048,8.48592593 C16.7619048,8.17173726 17.0689095,7.91703703 17.447619,7.91703703 L25.2190476,7.91703703 C25.5977572,7.91703703 25.9047619,8.17173726 25.9047619,8.48592593 L25.9047619,21.3807407 Z" id="形状"></path>
                    <polygon id="路径" points="18.3466667 1.98951966e-14 18.3466667 4.48000001 19.6266667 4.48000001 19.6266667 6.4 23.4666667 6.4 23.4666667 4.48000001 24.7466667 4.48000001 24.7466667 1.98951966e-14"></polygon>
                </g>
            </g>
        </g>
    </g>
</svg>