<?xml version="1.0" encoding="UTF-8"?>
<svg width="65px" height="65px" viewBox="0 0 65 65" version="1.1" xmlns="http://www.w3.org/2000/svg" xmlns:xlink="http://www.w3.org/1999/xlink">
    <title>接入点备份</title>
    <g id="页面-1" stroke="none" stroke-width="1" fill="none" fill-rule="evenodd">
        <g id="多电源用户预警" transform="translate(-416.000000, -578.000000)" fill-rule="nonzero">
            <g id="接入点备份" transform="translate(448.438776, 610.438776) rotate(90.000000) translate(-448.438776, -610.438776) translate(416.438776, 578.438776)">
                <path d="M0,32 C2.164332e-15,49.673112 14.326888,64 32,64 C49.673112,64 64,49.673112 64,32 C64,14.326888 49.673112,7.65329837e-13 32,7.68576335e-13 C14.326888,7.71822833e-13 -2.164332e-15,14.326888 0,32 Z" id="路径" fill="#DC4747"></path>
                <path d="M19.0246906,30.0433839 L9.69495122,30.0433839 C9.62039935,30.9037581 9.58852136,31.7570355 9.59931724,32.6032161 C9.61011312,33.4493967 9.66366762,34.295123 9.75998074,35.140395 L19.0246906,35.140395 C19.7853009,38.9008565 22.1292227,41.6645692 24.9543469,41.6645692 L29.6111451,41.6645692 L29.6111451,23.541863 L24.9543469,23.541863 C22.1447453,23.541863 19.7853009,26.2829223 19.0246906,30.0433839 Z M45.3020461,23.4990543 L32.8839176,23.4990543 L32.8839176,41.6217605 L45.3020461,41.6217605 L45.3020461,34.8030923 L57.4645634,34.8030923 C57.5548534,33.9738816 57.5999984,33.1311468 57.5999984,32.2748881 C57.5999984,31.4186294 57.5548534,30.5623604 57.4645634,29.7060812 L45.3020461,29.7060812 L45.3020461,23.4990543 Z" id="形状" fill="#FFFFFF"></path>
            </g>
        </g>
    </g>
</svg>