<?xml version="1.0" encoding="UTF-8"?>
<svg width="49px" height="64px" viewBox="0 0 49 64" version="1.1" xmlns="http://www.w3.org/2000/svg" xmlns:xlink="http://www.w3.org/1999/xlink">
    <title>断路器-关 备份</title>
    <g id="页面-1" stroke="none" stroke-width="1" fill="none" fill-rule="evenodd">
        <g id="多电源用户预警" transform="translate(-424.000000, -680.000000)">
            <g id="断路器-关-备份" transform="translate(424.028003, 680.000000)">
                <rect id="矩形" fill="#DC4747" x="0" y="0" width="48" height="64" rx="1"></rect>
                <path d="M24,20 C27.3137085,20 30.3137085,21.3431458 32.4852814,23.5147186 C34.6568542,25.6862915 36,28.6862915 36,32 C36,35.3137085 34.6568542,38.3137085 32.4852814,40.4852814 C30.3137085,42.6568542 27.3137085,44 24,44 C20.6862915,44 17.6862915,42.6568542 15.5147186,40.4852814 C13.3431458,38.3137085 12,35.3137085 12,32 C12,28.6862915 13.3431458,25.6862915 15.5147186,23.5147186 C17.6862915,21.3431458 20.6862915,20 24,20 Z" id="椭圆形" stroke="#FFFFFF" stroke-width="4"></path>
            </g>
        </g>
    </g>
</svg>