<?xml version="1.0" encoding="UTF-8"?>
<svg width="66px" height="66px" viewBox="0 0 66 66" version="1.1" xmlns="http://www.w3.org/2000/svg" xmlns:xlink="http://www.w3.org/1999/xlink">
    <title>电源点备份</title>
    <g id="页面-1" stroke="none" stroke-width="1" fill="none" fill-rule="evenodd">
        <g id="多电源用户预警" transform="translate(-315.000000, -577.000000)" fill-rule="nonzero">
            <g id="电源点备份" transform="translate(315.725000, 577.725000)">
                <path d="M32,0 C49.673112,0 64,14.326888 64,32 C64,49.673112 49.673112,64 32,64 C14.326888,64 0,49.673112 0,32 C0.02319569,14.3365049 14.3365049,0.02319569 32,0" id="形状" stroke="#4C72EA" fill-opacity="0.15" fill="#FFFFFF"></path>
                <path d="M6.85714286,32 C6.85714286,45.8860166 18.1139834,57.1428571 32,57.1428571 C45.8860166,57.1428571 57.1428571,45.8860166 57.1428571,32 C57.1428571,18.1139834 45.8860166,6.85714286 32,6.85714286 C18.1139834,6.85714286 6.85714286,18.1139834 6.85714286,32 L6.85714286,32 Z" id="路径" stroke="#4C72EA"></path>
                <path d="M41.2817181,28.9521942 L37.8189421,28.9521942 C37.1263869,28.9521942 35.0487214,29.3038906 34.3561662,28.9521942 C34.3561662,28.6004979 34.7024438,27.5454088 34.7024438,27.1937124 C35.0487214,25.786927 35.394999,24.7318379 35.7412766,23.3250525 L37.4726645,17.6979107 C37.4726645,16.6428216 36.4338317,16.2911252 36.0875541,16.9945179 L23.6215607,34.579336 C23.2752831,34.9310324 23.6215607,35.6344251 24.3141159,35.6344251 L29.1620022,35.6344251 C29.5082798,35.6344251 30.8933902,35.2827287 31.2396678,35.6344251 C31.2396678,35.6344251 30.8933902,36.6895142 30.8933902,37.0412106 C29.8545574,40.5581742 29.1620022,43.7234414 28.1231694,47.240405 C27.7768918,47.9437978 28.8157246,48.2954941 29.1620022,47.5921014 L41.6279957,30.0072833 C41.9742733,29.655587 41.6279957,28.9521942 41.2817181,28.9521942 Z" id="路径" fill="#4C72EA"></path>
            </g>
        </g>
    </g>
</svg>