<?xml version="1.0" encoding="UTF-8"?>
<svg width="64px" height="64px" viewBox="0 0 64 64" version="1.1" xmlns="http://www.w3.org/2000/svg" xmlns:xlink="http://www.w3.org/1999/xlink">
    <title>站房备份 2</title>
    <g id="页面-1" stroke="none" stroke-width="1" fill="none" fill-rule="evenodd">
        <g id="多电源用户预警" transform="translate(-517.000000, -578.000000)" fill="#D99D48">
            <g id="站房备份-2" transform="translate(517.000000, 578.000000)">
                <path d="M0,2 L0,62 C1.3527075e-16,63.1045695 0.8954305,64 2,64 L62,64 C63.1045695,64 64,63.1045695 64,62 L64,2 C64,0.8954305 63.1045695,-2.02906125e-16 62,0 L2,0 C0.8954305,2.02906125e-16 -1.3527075e-16,0.8954305 0,2 Z" id="路径" fill-rule="nonzero" opacity="0.259300595"></path>
                <path d="M0,2 L0,62 C1.3527075e-16,63.1045695 0.8954305,64 2,64 L62,64 C63.1045695,64 64,63.1045695 64,62 L64,2 C64,0.8954305 63.1045695,-2.02906125e-16 62,0 L2,0 C0.8954305,2.02906125e-16 -1.3527075e-16,0.8954305 0,2 Z M2.13286459,61.2129404 L2.13286459,29.9329404 C2.13286459,29.3806557 2.58057984,28.9329404 3.13286459,28.9329404 L60.8661979,28.9329404 C61.4184827,28.9329404 61.8661979,29.3806557 61.8661979,29.9329404 L61.8661979,61.2129404 C61.8661979,61.7652252 61.4184827,62.2129404 60.8661979,62.2129404 L3.13286459,62.2129404 C2.58057984,62.2129404 2.13286459,61.7652252 2.13286459,61.2129404 Z M60.8661979,26.6430071 L3.13286459,26.6430071 C2.58057984,26.6430071 2.13286459,26.1952919 2.13286459,25.6430071 L2.13286459,3.23767377 C2.13286459,2.68538902 2.58057984,2.23767377 3.13286459,2.23767377 L60.8661979,2.23767377 C61.4184827,2.23767377 61.8661979,2.68538902 61.8661979,3.23767377 L61.8661979,25.6430071 C61.8661979,26.1952919 61.4184827,26.6430071 60.8661979,26.6430071 Z" id="形状" fill-rule="nonzero"></path>
                <path d="M12.0409085,19.4513577 L24.8409085,19.4513577 L24.8409085,21.6700244 L12.0409085,21.6700244 L12.0409085,19.4513577 Z M39.7742418,19.4513577 L52.5742418,19.4513577 L52.5742418,21.6700244 L39.7742418,21.6700244 L39.7742418,19.4513577 Z M12.0409085,15.0140244 L24.8409085,15.0140244 L24.8409085,17.232691 L12.0409085,17.232691 L12.0409085,15.0140244 Z M39.7742418,15.0140244 L52.5742418,15.0140244 L52.5742418,17.232691 L39.7742418,17.232691 L39.7742418,15.0140244 Z M12.0409085,10.576691 L24.8409085,10.576691 L24.8409085,12.7953577 L12.0409085,12.7953577 L12.0409085,10.576691 Z M39.7742418,10.576691 L52.5742418,10.576691 L52.5742418,12.7953577 L39.7742418,12.7953577 L39.7742418,10.576691 Z" id="形状" fill-rule="nonzero"></path>
                <polygon id="矩形" points="16.4601267 8.87466667 20.7267933 8.87466667 20.7267933 19.968 16.4601267 19.968"></polygon>
                <polygon id="矩形备份-2" points="44.19346 8.87466667 48.4601267 8.87466667 48.4601267 19.968 44.19346 19.968"></polygon>
                <path d="M18.9929985,43.8186667 L19.7333333,44.9070692 L12.9339422,48.256 L2.66666667,48.256 L2.66666667,46.9666616 L12.6806697,46.9666616 L18.9929985,43.8186667 Z M20,51.584 L18.6666667,51.584 L18.6666667,47.1466667 L20,47.1466667 L20,48.6257778 L29.3333333,48.6257778 L29.3333333,50.1048889 L20,50.1048889 L20,51.584 Z" id="形状" fill-rule="nonzero" transform="translate(15.466667, 46.592000) rotate(-90.000000) translate(-15.466667, -46.592000) "></path>
                <path d="M33.9263318,43.8186667 L34.6666667,44.9070692 L27.8672755,48.256 L17.6,48.256 L17.6,46.9666616 L27.614003,46.9666616 L33.9263318,43.8186667 Z M34.9333333,51.584 L33.6,51.584 L33.6,47.1466667 L34.9333333,47.1466667 L34.9333333,48.6257778 L44.2666667,48.6257778 L44.2666667,50.1048889 L34.9333333,50.1048889 L34.9333333,51.584 Z" id="形状备份" fill-rule="nonzero" transform="translate(30.400000, 46.592000) rotate(-90.000000) translate(-30.400000, -46.592000) "></path>
                <path d="M48.8596651,43.8186667 L49.6,44.9070692 L42.8006088,48.256 L32.5333333,48.256 L32.5333333,46.9666616 L42.5473364,46.9666616 L48.8596651,43.8186667 Z M49.8666667,51.584 L48.5333333,51.584 L48.5333333,47.1466667 L49.8666667,47.1466667 L49.8666667,48.6257778 L59.2,48.6257778 L59.2,50.1048889 L49.8666667,50.1048889 L49.8666667,51.584 Z" id="形状备份-2" fill-rule="nonzero" transform="translate(45.333333, 46.592000) rotate(-90.000000) translate(-45.333333, -46.592000) "></path>
            </g>
        </g>
    </g>
</svg>