<svg xmlns="http://www.w3.org/2000/svg" xmlns:xlink="http://www.w3.org/1999/xlink" width="48.685" height="48.9" viewBox="0 0 48.685 48.9">
  <defs>
    <style>
      .cls-1 {
        fill: url(#linear-gradient);
      }

      .cls-2 {
        fill: #fff;
      }

      .cls-3 {
        filter: url(#椭圆_24);
      }
    </style>
    <linearGradient id="linear-gradient" x1="0.5" x2="0.5" y2="1" gradientUnits="objectBoundingBox">
      <stop offset="0" stop-color="#ffaaa5"/>
      <stop offset="1" stop-color="#ef5757"/>
    </linearGradient>
    <filter id="椭圆_24" x="0" y="0" width="48.685" height="48.9" filterUnits="userSpaceOnUse">
      <feOffset input="SourceAlpha"/>
      <feGaussianBlur stdDeviation="3" result="blur"/>
      <feFlood flood-opacity="0.161"/>
      <feComposite operator="in" in2="blur"/>
      <feComposite in="SourceGraphic"/>
    </filter>
  </defs>
  <g id="预警" transform="translate(-817.488 -580.746)">
    <g class="cls-3" transform="matrix(1, 0, 0, 1, 817.49, 580.75)">
      <ellipse id="椭圆_24-2" data-name="椭圆 24" class="cls-1" cx="15.343" cy="15.45" rx="15.343" ry="15.45" transform="translate(9 9)"/>
    </g>
    <path id="yujing" class="cls-2" d="M3.8,45.777V40.262a5.977,5.977,0,0,1,11.954,0v5.515h2.04a.767.767,0,0,1,0,1.534H1.514a.767.767,0,1,1,0-1.534H3.8Zm6.41-9.081L7.26,41.549H9.617l-.59,3.64,2.948-4.854H9.617l.59-3.64h0Zm4.521-5.332a.582.582,0,0,1,.212.793L13.881,34l-1-.58,1.06-1.842a.577.577,0,0,1,.787-.214ZM9.773,30a.606.606,0,0,1,.627.585v2.087H9.146V30.583A.606.606,0,0,1,9.773,30h0ZM4.821,31.364a.578.578,0,0,1,.788.21,0,0,0,0,0,0,0l1.06,1.842-1,.58-1.06-1.842a.581.581,0,0,1,.212-.791h0ZM1.2,35a.577.577,0,0,1,.788-.214,0,0,0,0,1,0,0l1.836,1.065-.578,1.005L1.407,35.8A.58.58,0,0,1,1.2,35Zm17.16,0a.583.583,0,0,1-.212.793L16.307,36.86l-.578-1.005,1.836-1.065a.578.578,0,0,1,.788.21s0,0,0,0h0Z" transform="translate(831.741 564.746)"/>
  </g>
</svg>
